<?xml version="1.0" encoding="utf-8"?><!-- Uploaded to: SVG Repo, www.svgrepo.com, Generator: SVG Repo Mixer Tools -->
<svg width="800px" height="800px" viewBox="0 0 24 24" fill="none" xmlns="http://www.w3.org/2000/svg">
<path fill-rule="evenodd" clip-rule="evenodd" d="M12.75 3.75V6.04642C13.8136 6.17905 14.7908 6.59009 15.6063 7.2043L17.3409 5.46967L18.4016 6.53033L16.6831 8.24883C17.3596 9.09237 17.813 10.1226 17.9536 11.25H20.25V12.75H17.9536C17.817 13.8455 17.385 14.8493 16.7399 15.6792L18.4017 17.341L17.3411 18.4017L15.6793 16.7399C14.8494 17.385 13.8456 17.817 12.75 17.9536V20.25H11.25V17.9536C10.1226 17.813 9.09237 17.3596 8.24883 16.6831L6.53027 18.4017L5.46961 17.341L7.2043 15.6063C6.59009 14.7908 6.17905 13.8136 6.04642 12.75H3.75V11.25H6.04642C6.18303 10.1544 6.61501 9.15062 7.26014 8.32072L5.46975 6.53033L6.53041 5.46967L8.32081 7.26007C9.1507 6.61498 10.1545 6.18303 11.25 6.04642V3.75H12.75ZM12 16.5C14.4853 16.5 16.5 14.4853 16.5 12C16.5 9.51472 14.4853 7.5 12 7.5C9.51472 7.5 7.5 9.51472 7.5 12C7.5 14.4853 9.51472 16.5 12 16.5ZM12 13.875C12 14.4963 11.4963 15 10.875 15C10.2537 15 9.75 14.4963 9.75 13.875C9.75 13.2537 10.2537 12.75 10.875 12.75C11.4963 12.75 12 13.2537 12 13.875ZM12.75 12C13.5784 12 14.25 11.3284 14.25 10.5C14.25 9.67157 13.5784 9 12.75 9C11.9216 9 11.25 9.67157 11.25 10.5C11.25 11.3284 11.9216 12 12.75 12Z" fill="#45d923ff"/>
</svg>